<svg width="8" height="8" viewBox="0 0 8 8" fill="none" xmlns="http://www.w3.org/2000/svg">
<path fill-rule="evenodd" clip-rule="evenodd" d="M7.70711 0.292893C8.09763 0.683417 8.09763 1.31658 7.70711 1.70711L5.41389 4.00032L7.70711 6.29353C8.09763 6.68406 8.09763 7.31722 7.70711 7.70775C7.31658 8.09827 6.68342 8.09827 6.29289 7.70775L3.99968 5.41453L1.70711 7.70711C1.31658 8.09763 0.683418 8.09763 0.292893 7.70711C-0.0976311 7.31658 -0.0976311 6.68342 0.292893 6.29289L2.58547 4.00032L0.292893 1.70775C-0.0976311 1.31722 -0.0976311 0.684059 0.292893 0.293534C0.683417 -0.0969899 1.31658 -0.0969899 1.70711 0.293534L3.99968 2.58611L6.29289 0.292893C6.68342 -0.0976311 7.31658 -0.0976311 7.70711 0.292893Z" fill="#9D9DB5"/>
</svg>
